<?xml version="1.0" standalone="no"?>
<!DOCTYPE svg PUBLIC "-//W3C//DTD SVG 20010904//EN"
 "http://www.w3.org/TR/2001/REC-SVG-20010904/DTD/svg10.dtd">
<svg version="1.0" xmlns="http://www.w3.org/2000/svg"
 width="525.000000pt" height="525.000000pt" viewBox="0 0 525.000000 525.000000"
 preserveAspectRatio="xMidYMid meet">
<metadata>
Created by potrace 1.14, written by Peter Selinger 2001-2017
</metadata>
<g transform="translate(0.000000,525.000000) scale(0.100000,-0.100000)"
fill="#000000" stroke="none">
<path d="M2177 5011 c-26 -31 -13 -318 22 -471 5 -25 13 -104 17 -176 8 -158
2 -176 -102 -303 -76 -93 -152 -151 -230 -176 -70 -22 -102 -13 -110 31 -7 37
3 134 17 172 5 13 11 43 14 67 5 40 4 43 -21 49 -16 4 -34 1 -48 -7 -31 -21
-80 -126 -121 -263 -60 -198 -63 -201 -199 -210 -127 -8 -354 -11 -365 -5 -6
4 -7 21 -1 46 5 22 12 65 15 95 12 105 -52 310 -97 310 -17 0 -27 -51 -29
-148 -2 -113 -16 -158 -68 -210 -40 -40 -66 -40 -119 -2 -71 53 -83 83 -86
215 -3 114 -3 115 35 192 53 112 55 121 26 134 -51 23 -100 -25 -182 -176 -51
-95 -56 -100 -68 -79 -11 20 -13 279 -3 427 7 97 7 97 -16 97 -50 0 -68 -36
-93 -180 -6 -37 -30 -69 -41 -57 -4 4 -8 58 -9 120 -2 143 -9 189 -46 309 -32
105 -64 156 -93 145 -15 -6 -17 -16 -11 -69 4 -35 9 -65 10 -68 2 -3 7 -37 10
-75 4 -38 9 -78 11 -89 2 -10 6 -71 9 -135 7 -154 14 -242 21 -264 3 -11 7
-29 9 -40 30 -232 35 -243 193 -408 41 -42 80 -86 88 -98 8 -12 22 -21 30 -21
23 0 64 -50 64 -78 0 -14 -16 -54 -36 -89 l-35 -63 26 -10 c46 -18 58 -11 132
67 39 43 75 75 78 71 6 -5 -63 -94 -126 -162 l-27 -29 -78 13 c-132 21 -256 6
-362 -43 -59 -27 -66 -44 -59 -151 9 -135 43 -274 77 -307 33 -33 144 -69 214
-69 l51 0 118 -118 117 -118 30 -92 c57 -180 64 -220 75 -441 11 -215 16 -298
21 -346 8 -71 58 -275 100 -401 19 -59 50 -170 70 -248 19 -78 43 -157 53
-176 13 -25 17 -50 14 -87 -5 -61 9 -93 39 -93 20 0 20 -1 5 -18 -37 -41 -12
-76 61 -86 43 -6 59 -14 109 -62 120 -116 292 -231 440 -297 l62 -28 1603 4
c882 2 1619 7 1638 11 19 4 46 18 60 32 l25 24 0 693 c0 380 -4 709 -8 730
-16 78 115 72 -1677 75 l-1595 3 -34 37 c-106 117 -169 286 -187 502 -8 101
-9 593 -1 633 3 16 12 36 19 45 20 23 163 88 248 111 l75 20 118 123 c137 142
193 220 202 282 12 76 4 85 -72 84 -37 -1 -75 -3 -85 -6 -16 -4 -16 -7 7 -34
14 -16 28 -40 31 -53 12 -49 -42 -111 -105 -121 -42 -7 -61 10 -61 52 0 30 -3
34 -27 35 -51 0 -117 11 -157 25 -39 14 -39 14 -94 -28 -94 -74 -121 -91 -137
-84 -24 9 -17 42 14 69 16 13 120 70 232 127 235 118 318 163 374 201 114 77
229 238 269 379 35 123 38 234 7 283 -20 32 -43 140 -56 262 -3 33 -8 69 -10
80 -2 11 -4 34 -4 50 -2 42 -14 58 -40 50 -34 -10 -59 -89 -60 -189 -1 -18 -5
-26 -10 -20 -8 8 -19 164 -21 277 0 37 -1 38 -35 35 -20 -1 -41 -9 -48 -17z
m-1041 -1527 c10 -3 54 -20 98 -37 l78 -32 -7 -60 c-8 -73 -45 -159 -77 -176
-52 -29 -131 -57 -151 -53 -11 2 -56 15 -100 30 -84 28 -161 29 -178 3 -13
-20 -11 -57 3 -61 9 -3 7 -15 -6 -43 -14 -28 -17 -51 -12 -88 8 -73 23 -84 86
-68 57 15 55 16 101 -56 29 -46 18 -56 -54 -49 -33 4 -63 9 -66 10 -3 2 -24 7
-46 10 -24 4 -48 16 -60 29 -11 13 -33 31 -50 41 -61 38 -164 120 -159 128 3
4 24 8 48 8 23 0 50 6 60 13 17 12 17 15 2 29 -9 9 -42 22 -73 28 -32 7 -74
15 -93 19 -40 8 -40 13 -8 99 l20 54 37 -6 c20 -3 68 -9 107 -12 64 -6 75 -4
113 18 41 25 44 25 109 11 221 -46 343 -37 387 31 28 43 27 66 -6 97 -35 33
-77 43 -172 42 -50 0 -73 -5 -87 -18 -11 -10 -20 -14 -20 -9 0 12 60 70 80 77
16 6 65 2 96 -9z m-759 -462 c24 -15 -5 -33 -57 -37 -29 -2 -59 -1 -66 2 -20
7 -17 31 4 36 29 8 106 7 119 -1z m4383 -1492 c205 -48 296 -198 255 -419 -10
-54 -32 -90 -95 -156 l-58 -60 70 -150 c38 -82 78 -171 89 -197 l19 -48 -25
-1 c-14 0 -38 -1 -55 -1 -125 0 -117 -3 -144 55 -111 241 -136 288 -158 296
-31 12 -217 11 -225 -2 -9 -15 -10 -38 -12 -204 l-1 -153 -96 0 -96 0 8 193
c9 238 9 471 0 689 l-6 167 82 3 c181 6 395 1 448 -12z m-2357 -14 c133 -37
222 -109 281 -227 141 -281 43 -630 -212 -761 l-67 -34 -274 2 c-206 1 -275 5
-281 14 -11 17 -8 1013 2 1021 5 3 118 5 251 4 187 -2 255 -6 300 -19z m1030
11 c10 -8 18 -36 22 -80 l7 -67 -224 1 c-123 1 -233 -1 -245 -5 -25 -8 -31
-38 -29 -159 1 -66 5 -90 16 -98 9 -6 98 -7 239 -4 l223 6 -5 -75 c-3 -41 -8
-79 -11 -85 -4 -6 -79 -8 -204 -5 -108 2 -210 1 -227 -4 l-30 -9 0 -109 c-1
-60 1 -122 3 -137 7 -48 43 -57 222 -51 311 11 285 12 285 -16 0 -14 -4 -52
-10 -85 l-11 -60 -285 2 c-156 1 -310 2 -342 3 l-59 0 7 193 c10 243 10 476 1
690 l-7 167 324 0 c236 -1 329 -4 340 -13z m732 -3 c8 -9 15 -21 15 -27 0 -7
3 -36 6 -65 l6 -53 -188 1 c-257 2 -277 1 -292 -9 -18 -11 -28 -195 -13 -234
l11 -28 231 6 231 5 -5 -74 c-2 -40 -7 -78 -10 -83 -4 -7 -82 -9 -214 -7 -115
1 -218 -1 -231 -6 -22 -9 -23 -14 -21 -115 1 -58 4 -119 8 -137 10 -50 45 -57
236 -51 295 10 270 11 270 -17 -1 -58 -17 -139 -28 -143 -17 -5 -659 2 -675 8
-7 3 -11 8 -8 13 15 25 23 608 12 880 l-7 152 325 0 c277 -1 328 -3 341 -16z"/>
<path d="M4473 1382 c-24 -2 -43 -4 -43 -5 -1 -1 -3 -83 -7 -183 l-6 -181 24
-5 c13 -2 83 -4 154 -4 111 1 135 4 164 21 63 37 76 66 76 164 0 81 -3 91 -28
124 -31 40 -56 57 -96 63 -37 6 -188 10 -238 6z"/>
<path d="M2029 1373 c-21 -24 -20 -710 0 -723 22 -13 291 -5 326 11 133 59
203 175 210 349 3 98 -46 231 -107 286 -67 62 -181 94 -334 94 -64 0 -85 -4
-95 -17z"/>
<path d="M4180 2993 l-35 -4 0 -524 0 -525 93 0 92 0 1 153 c1 164 2 184 18
200 11 11 174 15 211 5 21 -6 38 -36 104 -183 l78 -175 103 0 c56 0 104 3 108
6 9 9 -15 67 -148 349 l-23 49 43 43 c59 58 91 102 100 138 13 52 15 188 4
242 -24 106 -132 198 -259 222 -51 9 -410 12 -490 4z m394 -167 c114 -16 165
-74 166 -189 0 -70 -18 -117 -56 -144 -32 -23 -120 -39 -204 -37 -30 1 -77 2
-103 3 l-49 1 6 177 c4 97 9 179 11 181 16 17 135 21 229 8z"/>
<path d="M1833 2983 c6 -9 19 -363 19 -523 0 -47 -3 -183 -7 -304 l-6 -218
298 6 c164 3 310 8 326 12 42 10 123 89 152 148 38 78 45 195 16 257 -21 45
-95 129 -113 129 -5 0 8 17 29 39 110 109 111 277 2 375 -81 72 -103 77 -433
83 -175 3 -286 2 -283 -4z m427 -137 c110 -10 170 -59 170 -139 0 -73 -39
-113 -130 -132 -48 -11 -220 -8 -249 3 -26 9 -28 28 -16 157 2 17 3 49 4 72 1
35 5 42 24 45 26 4 119 1 197 -6z m93 -457 c35 -8 54 -20 74 -45 23 -31 25
-41 20 -100 -7 -97 -42 -127 -164 -142 -81 -9 -223 -6 -235 6 -4 4 -10 66 -14
138 -5 106 -4 133 7 140 35 21 223 23 312 3z"/>
<path d="M2686 2773 c4 -120 7 -247 7 -283 0 -138 -14 -533 -19 -542 -3 -4 64
-8 148 -9 84 0 238 -1 343 -2 l189 -2 16 45 c8 25 15 63 15 85 l0 40 -105 -2
c-58 0 -159 -2 -225 -3 -149 -3 -162 0 -172 48 -12 63 -9 230 4 243 9 9 69 12
232 11 l219 -2 4 22 c2 13 5 51 7 86 l2 62 -228 1 c-125 1 -231 1 -235 0 -5 0
-9 11 -9 26 -7 168 -1 216 29 228 9 4 118 6 241 6 l224 -2 -7 73 c-3 39 -11
75 -17 79 -6 3 -159 7 -340 8 l-330 2 7 -218z"/>
<path d="M3416 2783 c3 -114 6 -255 6 -313 0 -148 -13 -513 -19 -522 -2 -5 44
-8 104 -9 59 0 213 -1 341 -3 162 -1 236 2 242 9 11 13 22 74 24 125 l1 35
-105 -1 c-58 -1 -157 -3 -220 -4 -63 -1 -127 1 -142 5 -33 9 -39 31 -43 170
-3 82 -1 106 11 116 10 8 75 12 233 11 l219 -1 4 23 c3 12 6 50 7 84 l2 62
-223 1 c-123 1 -229 1 -235 0 -8 -1 -13 10 -14 26 0 15 -2 60 -3 98 -3 89 8
121 42 130 15 4 123 6 241 6 l214 -2 -7 73 c-3 39 -9 74 -12 77 -3 3 -156 8
-340 9 l-335 4 7 -209z"/>
</g>
</svg>
